#N canvas 0 0 1280 1006 12;
#X obj 600 187 midiout;
#X obj 65 51 vsl 20 170 0 127 0 0 empty empty empty 0 -9 0 12 #fcfcfc #000000 #000000 0 1;
#X obj 162 51 vsl 20 170 0 127 0 0 empty empty empty 0 -9 0 12 #fcfcfc #000000 #000000 0 1;
#X obj 248 53 vsl 20 170 0 127 0 0 empty empty empty 0 -9 0 12 #fcfcfc #000000 #000000 0 1;
#X floatatom 248 233 5 0 0 0 - - - 0;
#X floatatom 162 230 5 0 0 0 - - - 0;
#X floatatom 65 231 5 0 0 0 - - - 0;
#X obj 65 277 ctlout 100;
#X obj 162 275 ctlout 101;
#X obj 248 274 ctlout 102;
#X obj 600 133 midiin;
#X obj 350 61 vradio 20 1 0 5 empty empty OCTAVE -8 -8 0 12 #fcfcfc #000000 #000000 0;
#X floatatom 350 230 5 0 0 0 - - - 0;
#X obj 350 275 ctlout 103;
#X obj 63 337 vsl 20 170 0 127 0 0 empty empty empty 0 -9 0 12 #fcfcfc #000000 #000000 0 1;
#X floatatom 63 517 5 0 0 0 - - - 0;
#X obj 148 338 vsl 20 170 0 127 0 0 empty empty empty 0 -9 0 12 #fcfcfc #000000 #000000 0 1;
#X floatatom 148 518 5 0 0 0 - - - 0;
#X obj 231 339 vsl 20 170 0 127 0 0 empty empty empty 0 -9 0 12 #fcfcfc #000000 #000000 0 1;
#X floatatom 231 517 5 0 0 0 - - - 0;
#X obj 313 337 vsl 20 170 0 127 0 0 empty empty empty 0 -9 0 12 #fcfcfc #000000 #000000 0 1;
#X floatatom 313 517 5 0 0 0 - - - 0;
#X obj 63 563 ctlout 104;
#X obj 148 564 ctlout 105;
#X obj 231 563 ctlout 106;
#X obj 313 563 ctlout 107;
#X obj 447 50 vsl 20 170 0 127 0 0 empty empty empty 0 -9 0 12 #fcfcfc #000000 #000000 0 1;
#X floatatom 447 230 5 0 0 0 - - - 0;
#X obj 447 276 ctlout 108;
#X obj 532 333 vsl 20 170 0 127 0 0 empty empty empty 0 -9 0 12 #fcfcfc #000000 #000000 0 1;
#X obj 629 333 vsl 20 170 0 127 0 0 empty empty empty 0 -9 0 12 #fcfcfc #000000 #000000 0 1;
#X floatatom 629 512 5 0 0 0 - - - 0;
#X floatatom 532 513 5 0 0 0 - - - 0;
#X obj 532 559 ctlout 109;
#X obj 629 557 ctlout 110;
#X obj 722 310 vsl 20 170 1 12 0 0 empty empty empty 0 -9 0 12 #fcfcfc #000000 #000000 0 1;
#X floatatom 723 535 5 0 0 0 - - - 0;
#X obj 724 582 ctlout 111;
#X obj 725 509 int;
#X connect 1 0 6 0;
#X connect 2 0 5 0;
#X connect 3 0 4 0;
#X connect 4 0 9 0;
#X connect 5 0 8 0;
#X connect 6 0 7 0;
#X connect 10 0 0 0;
#X connect 11 0 12 0;
#X connect 12 0 13 0;
#X connect 14 0 15 0;
#X connect 15 0 22 0;
#X connect 16 0 17 0;
#X connect 17 0 23 0;
#X connect 18 0 19 0;
#X connect 19 0 24 0;
#X connect 20 0 21 0;
#X connect 21 0 25 0;
#X connect 26 0 27 0;
#X connect 27 0 28 0;
#X connect 29 0 32 0;
#X connect 30 0 31 0;
#X connect 31 0 34 0;
#X connect 32 0 33 0;
#X connect 35 0 38 0;
#X connect 36 0 37 0;
#X connect 38 0 36 0;
